# MagicaVoxel @ ephtracy

# material
mtllib PlayerArmWithRevolver.mtl
usemtl palette

# normals
vn -1 0 0
vn 1 0 0
vn 0 0 1
vn 0 0 -1
vn 0 -1 0
vn 0 1 0

# texcoords
vt 0.0605469 0.5
vt 0.537109 0.5
vt 0.970703 0.5
vt 0.986328 0.5
vt 0.990234 0.5

# verts
v -24 2 4
v -24 2 -4
v -24 10 4
v -24 10 -4
v 2 0 2
v 2 0 -2
v 2 2 2
v 2 2 -2
v 5 10 1
v 5 10 -1
v 5 13 1
v 5 13 -1
v 6 10 2
v 6 10 1
v 6 10 -1
v 6 10 -2
v 6 12 2
v 6 12 1
v 6 12 -1
v 6 12 -2
v 6 13 1
v 6 13 -1
v 6 14 1
v 6 14 -1
v 8 12 2
v 8 12 -2
v 8 13 1
v 8 13 -1
v 8 14 2
v 8 14 1
v 8 14 -1
v 8 14 -2
v 13 7 1
v 13 7 -1
v 13 8 1
v 13 8 -1
v 6 0 2
v 6 0 -2
v 6 2 2
v 6 2 -2
v 7 12 1
v 7 12 -1
v 7 13 1
v 7 13 -1
v 8 2 4
v 8 2 -4
v 8 4 2
v 8 4 -2
v 8 6 2
v 8 6 -2
v 8 10 4
v 8 10 2
v 8 10 -2
v 8 10 -4
v 10 6 2
v 10 6 1
v 10 6 -1
v 10 6 -2
v 10 7 1
v 10 7 -1
v 10 8 2
v 10 8 -2
v 13 6 1
v 13 6 -1
v 13 7 1
v 13 7 -1
v 14 7 1
v 14 7 -1
v 14 8 1
v 14 8 -1
v 16 8 2
v 16 8 -2
v 16 10 2
v 16 10 -2
v 20 11 1
v 20 11 -1
v 20 13 1
v 20 13 -1
v 24 10 2
v 24 10 -2
v 24 11 1
v 24 11 -1
v 24 13 1
v 24 13 -1
v 24 14 2
v 24 14 -2
v -24 2 4
v -24 10 4
v -16 2 4
v -16 10 4
v 8 2 4
v 8 10 4
v 2 0 2
v 2 2 2
v 6 0 2
v 6 2 2
v 6 10 2
v 6 12 2
v 8 6 2
v 8 10 2
v 8 12 2
v 8 14 2
v 10 6 2
v 10 8 2
v 16 8 2
v 16 10 2
v 24 10 2
v 24 14 2
v 5 10 1
v 5 13 1
v 6 10 1
v 6 12 1
v 6 13 1
v 6 14 1
v 7 12 1
v 7 13 1
v 8 13 1
v 8 14 1
v 10 6 1
v 10 7 1
v 13 6 1
v 13 7 1
v 13 8 1
v 14 7 1
v 14 8 1
v 20 11 -1
v 20 13 -1
v 24 11 -1
v 24 13 -1
v 20 11 1
v 20 13 1
v 24 11 1
v 24 13 1
v 5 10 -1
v 5 13 -1
v 6 10 -1
v 6 12 -1
v 6 13 -1
v 6 14 -1
v 7 12 -1
v 7 13 -1
v 8 13 -1
v 8 14 -1
v 10 6 -1
v 10 7 -1
v 13 6 -1
v 13 7 -1
v 13 8 -1
v 14 7 -1
v 14 8 -1
v 2 0 -2
v 2 2 -2
v 6 0 -2
v 6 2 -2
v 6 10 -2
v 6 12 -2
v 8 6 -2
v 8 10 -2
v 8 12 -2
v 8 14 -2
v 10 6 -2
v 10 8 -2
v 16 8 -2
v 16 10 -2
v 24 10 -2
v 24 14 -2
v -24 2 -4
v -24 10 -4
v -16 2 -4
v -16 10 -4
v 8 2 -4
v 8 10 -4
v 2 0 2
v 6 0 2
v 2 0 -2
v 6 0 -2
v -24 2 4
v -16 2 4
v 8 2 4
v 2 2 2
v 6 2 2
v 2 2 -2
v 6 2 -2
v -24 2 -4
v -16 2 -4
v 8 2 -4
v 8 6 2
v 10 6 2
v 10 6 1
v 13 6 1
v 10 6 -1
v 13 6 -1
v 8 6 -2
v 10 6 -2
v 13 7 1
v 14 7 1
v 13 7 -1
v 14 7 -1
v 10 8 2
v 16 8 2
v 13 8 1
v 14 8 1
v 13 8 -1
v 14 8 -1
v 10 8 -2
v 16 8 -2
v 16 10 2
v 24 10 2
v 16 10 -2
v 24 10 -2
v 7 13 1
v 8 13 1
v 20 13 1
v 24 13 1
v 7 13 -1
v 8 13 -1
v 20 13 -1
v 24 13 -1
v 10 7 1
v 13 7 1
v 10 7 -1
v 13 7 -1
v -24 10 4
v -16 10 4
v 8 10 4
v 4 10 2
v 6 10 2
v 8 10 2
v 5 10 1
v 6 10 1
v 5 10 -1
v 6 10 -1
v 4 10 -2
v 6 10 -2
v 8 10 -2
v -24 10 -4
v -16 10 -4
v 8 10 -4
v 20 11 1
v 24 11 1
v 20 11 -1
v 24 11 -1
v 6 12 2
v 8 12 2
v 6 12 1
v 7 12 1
v 6 12 -1
v 7 12 -1
v 6 12 -2
v 8 12 -2
v 5 13 1
v 6 13 1
v 5 13 -1
v 6 13 -1
v 8 14 2
v 24 14 2
v 6 14 1
v 8 14 1
v 6 14 -1
v 8 14 -1
v 8 14 -2
v 24 14 -2

# faces
f 3/2/1 2/2/1 1/2/1
f 4/2/1 2/2/1 3/2/1
f 7/4/1 6/4/1 5/4/1
f 8/4/1 6/4/1 7/4/1
f 11/3/1 10/3/1 9/3/1
f 12/3/1 10/3/1 11/3/1
f 17/4/1 14/4/1 13/4/1
f 18/4/1 14/4/1 17/4/1
f 19/4/1 16/4/1 15/4/1
f 20/4/1 16/4/1 19/4/1
f 23/3/1 22/3/1 21/3/1
f 24/3/1 22/3/1 23/3/1
f 27/5/1 26/5/1 25/5/1
f 28/5/1 26/5/1 27/5/1
f 29/5/1 27/5/1 25/5/1
f 30/5/1 27/5/1 29/5/1
f 31/5/1 26/5/1 28/5/1
f 32/5/1 26/5/1 31/5/1
f 35/4/1 34/4/1 33/4/1
f 36/4/1 34/4/1 35/4/1
f 37/4/2 38/4/2 39/4/2
f 39/4/2 38/4/2 40/4/2
f 41/3/2 42/3/2 43/3/2
f 43/3/2 42/3/2 44/3/2
f 45/1/2 46/1/2 47/1/2
f 47/1/2 46/1/2 48/1/2
f 45/1/2 47/1/2 49/1/2
f 47/4/2 48/4/2 49/4/2
f 48/1/2 46/1/2 50/1/2
f 49/4/2 48/4/2 50/4/2
f 45/1/2 49/1/2 51/1/2
f 51/1/2 49/1/2 52/1/2
f 50/1/2 46/1/2 53/1/2
f 53/1/2 46/1/2 54/1/2
f 55/4/2 56/4/2 59/4/2
f 57/4/2 58/4/2 60/4/2
f 55/4/2 59/4/2 61/4/2
f 59/4/2 60/4/2 61/4/2
f 60/4/2 58/4/2 62/4/2
f 61/4/2 60/4/2 62/4/2
f 63/4/2 64/4/2 65/4/2
f 65/4/2 64/4/2 66/4/2
f 67/4/2 68/4/2 69/4/2
f 69/4/2 68/4/2 70/4/2
f 71/4/2 72/4/2 73/4/2
f 73/4/2 72/4/2 74/4/2
f 75/4/2 76/4/2 77/4/2
f 77/4/2 76/4/2 78/4/2
f 79/5/2 80/5/2 81/5/2
f 81/5/2 80/5/2 82/5/2
f 79/5/2 81/5/2 83/5/2
f 82/5/2 80/5/2 84/5/2
f 79/5/2 83/5/2 85/5/2
f 83/5/2 84/5/2 85/5/2
f 84/5/2 80/5/2 86/5/2
f 85/5/2 84/5/2 86/5/2
f 89/2/3 88/2/3 87/2/3
f 90/2/3 88/2/3 89/2/3
f 91/1/3 90/1/3 89/1/3
f 92/1/3 90/1/3 91/1/3
f 95/4/3 94/4/3 93/4/3
f 96/4/3 94/4/3 95/4/3
f 100/4/3 98/4/3 97/4/3
f 101/4/3 98/4/3 100/4/3
f 103/4/3 100/4/3 99/4/3
f 104/4/3 100/4/3 103/4/3
f 105/4/3 100/4/3 104/4/3
f 106/5/3 102/5/3 101/5/3
f 106/4/3 100/4/3 105/4/3
f 106/5/3 101/5/3 100/5/3
f 107/5/3 102/5/3 106/5/3
f 108/5/3 102/5/3 107/5/3
f 111/3/3 110/3/3 109/3/3
f 112/3/3 110/3/3 111/3/3
f 113/3/3 110/3/3 112/3/3
f 115/3/3 114/3/3 113/3/3
f 115/3/3 113/3/3 112/3/3
f 116/3/3 114/3/3 115/3/3
f 117/3/3 114/3/3 116/3/3
f 118/3/3 114/3/3 117/3/3
f 121/4/3 120/4/3 119/4/3
f 122/4/3 120/4/3 121/4/3
f 124/4/3 123/4/3 122/4/3
f 125/4/3 123/4/3 124/4/3
f 128/5/3 127/5/3 126/5/3
f 129/5/3 127/5/3 128/5/3
f 130/5/4 131/5/4 132/5/4
f 132/5/4 131/5/4 133/5/4
f 134/3/4 135/3/4 136/3/4
f 136/3/4 135/3/4 137/3/4
f 137/3/4 135/3/4 138/3/4
f 138/3/4 139/3/4 140/3/4
f 137/3/4 138/3/4 140/3/4
f 140/3/4 139/3/4 141/3/4
f 141/3/4 139/3/4 142/3/4
f 142/3/4 139/3/4 143/3/4
f 144/4/4 145/4/4 146/4/4
f 146/4/4 145/4/4 147/4/4
f 147/4/4 148/4/4 149/4/4
f 149/4/4 148/4/4 150/4/4
f 151/4/4 152/4/4 153/4/4
f 153/4/4 152/4/4 154/4/4
f 155/4/4 156/4/4 158/4/4
f 158/4/4 156/4/4 159/4/4
f 157/4/4 158/4/4 161/4/4
f 161/4/4 158/4/4 162/4/4
f 162/4/4 158/4/4 163/4/4
f 159/5/4 160/5/4 164/5/4
f 163/4/4 158/4/4 164/4/4
f 158/5/4 159/5/4 164/5/4
f 164/5/4 160/5/4 165/5/4
f 165/5/4 160/5/4 166/5/4
f 167/2/4 168/2/4 169/2/4
f 169/2/4 168/2/4 170/2/4
f 169/1/4 170/1/4 171/1/4
f 171/1/4 170/1/4 172/1/4
f 175/4/5 174/4/5 173/4/5
f 176/4/5 174/4/5 175/4/5
f 180/1/5 179/1/5 178/1/5
f 181/1/5 179/1/5 180/1/5
f 182/1/5 180/1/5 178/1/5
f 183/1/5 179/1/5 181/1/5
f 184/2/5 178/2/5 177/2/5
f 185/1/5 183/1/5 182/1/5
f 185/2/5 178/2/5 184/2/5
f 185/1/5 182/1/5 178/1/5
f 186/1/5 179/1/5 183/1/5
f 186/1/5 183/1/5 185/1/5
f 189/4/5 188/4/5 187/4/5
f 191/4/5 189/4/5 187/4/5
f 191/4/5 190/4/5 189/4/5
f 192/4/5 190/4/5 191/4/5
f 193/4/5 191/4/5 187/4/5
f 194/4/5 191/4/5 193/4/5
f 197/4/5 196/4/5 195/4/5
f 198/4/5 196/4/5 197/4/5
f 201/4/5 200/4/5 199/4/5
f 202/4/5 200/4/5 201/4/5
f 203/4/5 201/4/5 199/4/5
f 204/4/5 200/4/5 202/4/5
f 205/4/5 203/4/5 199/4/5
f 205/4/5 204/4/5 203/4/5
f 206/4/5 200/4/5 204/4/5
f 206/4/5 204/4/5 205/4/5
f 209/5/5 208/5/5 207/5/5
f 210/5/5 208/5/5 209/5/5
f 215/3/5 212/3/5 211/3/5
f 216/3/5 212/3/5 215/3/5
f 217/5/5 214/5/5 213/5/5
f 218/5/5 214/5/5 217/5/5
f 219/4/6 220/4/6 221/4/6
f 221/4/6 220/4/6 222/4/6
f 224/1/6 225/1/6 226/1/6
f 226/1/6 225/1/6 227/1/6
f 227/1/6 225/1/6 228/1/6
f 226/4/6 227/4/6 229/4/6
f 229/4/6 227/4/6 230/4/6
f 226/4/6 229/4/6 231/4/6
f 224/1/6 226/1/6 233/1/6
f 231/4/6 232/4/6 233/4/6
f 226/4/6 231/4/6 233/4/6
f 233/4/6 232/4/6 234/4/6
f 223/2/6 224/2/6 236/2/6
f 234/1/6 235/1/6 237/1/6
f 236/2/6 224/2/6 237/2/6
f 233/1/6 234/1/6 237/1/6
f 224/1/6 233/1/6 237/1/6
f 237/1/6 235/1/6 238/1/6
f 239/5/6 240/5/6 241/5/6
f 241/5/6 240/5/6 242/5/6
f 243/4/6 244/4/6 245/4/6
f 245/4/6 244/4/6 246/4/6
f 246/4/6 244/4/6 248/4/6
f 247/4/6 248/4/6 249/4/6
f 248/4/6 244/4/6 250/4/6
f 249/4/6 248/4/6 250/4/6
f 251/3/6 252/3/6 253/3/6
f 253/3/6 252/3/6 254/3/6
f 255/5/6 256/5/6 258/5/6
f 257/3/6 258/3/6 259/3/6
f 258/5/6 256/5/6 260/5/6
f 259/3/6 258/3/6 260/3/6
f 260/5/6 256/5/6 261/5/6
f 261/5/6 256/5/6 262/5/6
